<?xml version="1.0" encoding="UTF-8"?>
<svg id="Ebene_1" data-name="Ebene 1" xmlns="http://www.w3.org/2000/svg" viewBox="0 0 128 128">
  <defs>
    <style>
      .cls-1 {
        fill: #492267;
      }
    </style>
  </defs>
  <path class="cls-1" d="M56.79,65.01c.81,5.74-.28,8.89-3.81,9.39-.65.09-1.19.03-1.6-.04l-2.38-16.91c.44-.19.94-.4,1.66-.5,3.59-.5,5.3,2.18,6.12,8.06ZM98.99,59.08c1.6,11.36,11.77,19.31,23.02,18.4.73-.04,1.32.41,1.42,1.13l4.56,32.44c.1.72-.4,1.39-1.12,1.49l-37.5,5.27-.73-5.22c-.16-1.12-1.19-1.9-2.31-1.74s-1.9,1.15-1.74,2.31l.73,5.22-68.37,9.61c-.72.1-1.39-.4-1.49-1.12l-4.56-32.44c-.1-.72.35-1.31,1.06-1.48,11.08-2.16,18.66-12.61,17.07-23.96-1.6-11.36-11.78-19.38-23.03-18.46-.73.04-1.32-.41-1.42-1.13L.01,16.95c-.1-.72.4-1.39,1.12-1.49L69.5,5.85l.73,5.22c.16,1.12,1.19,1.9,2.31,1.74s1.9-1.19,1.74-2.31l-.73-5.22L111.05.01c.72-.1,1.39.4,1.49,1.12l4.56,32.44c.1.72-.35,1.31-1.06,1.48-11.08,2.16-18.65,12.67-17.06,24.03ZM66.57,63.57c-1.39-9.86-7.98-13.66-16.66-12.44-5.42.76-8.88,2.18-11.38,3.8l5.3,37.73,9.92-1.39-1.59-11.29c.75.09,2.27.08,4.04-.17,7.25-1.02,11.61-7.36,10.36-16.23ZM85.47,90.07c-.15-1.08-1.23-1.89-2.31-1.74s-1.9,1.19-1.74,2.31l1.47,10.44c.16,1.12,1.19,1.9,2.31,1.74,1.12-.16,1.9-1.19,1.74-2.31l-1.47-10.44ZM82.29,67.49c-.16-1.12-1.19-1.9-2.31-1.74-1.15.16-1.9,1.15-1.74,2.31l1.47,10.44c.15,1.08,1.23,1.89,2.31,1.74s1.89-1.23,1.74-2.31l-1.47-10.44ZM79.14,45.03c-.15-1.08-1.23-1.89-2.31-1.74s-1.9,1.19-1.74,2.31l1.47,10.44c.16,1.12,1.19,1.9,2.31,1.74,1.12-.16,1.9-1.19,1.74-2.31l-1.47-10.44ZM75.96,22.45c-.16-1.12-1.19-1.9-2.31-1.74s-1.9,1.15-1.74,2.31l1.47,10.44c.15,1.08,1.23,1.89,2.31,1.74s1.89-1.23,1.74-2.31l-1.47-10.44Z"/>
</svg>